<svg xmlns="http://www.w3.org/2000/svg" width="76.484" height="65.656" viewBox="0 0 76.484 65.656">
  <g id="Grupo_515" data-name="Grupo 515" transform="translate(-5361.392 -11.959)">
    <path id="Trazado_947" data-name="Trazado 947" d="M5369.7,77.615a8.308,8.308,0,0,1-8.077-10.251l3.611-13.212A8.243,8.243,0,0,1,5371.554,48l.55-.118,0-.563a10.728,10.728,0,0,1,.858-4.16,10.786,10.786,0,0,1,1.862-2.942,11.033,11.033,0,0,1,.95-.946c.1-.09.207-.179.313-.266l.344-.282-.109-.431a23.136,23.136,0,0,0-.692-2.307,2.012,2.012,0,0,1,1.892-2.707h3.162l.144-.512a19.013,19.013,0,0,1,.776-2.26,19.383,19.383,0,0,1,6.624-8.21l.382-.27-.206-.9q-.229-.971-.448-1.8c-.145-.548-.287-1.048-.42-1.5s-.259-.849-.373-1.2c-.152-.462-.283-.836-.389-1.122a2.237,2.237,0,0,1-.128-.554,3.53,3.53,0,0,1,.573-2.24,2.283,2.283,0,0,1,1.693-.751h20.173a2.281,2.281,0,0,1,1.871.974,4.972,4.972,0,0,1,.37,1.38l.078.43.42.119q.4.114.788.252a11.688,11.688,0,0,1,1.954.9,10.237,10.237,0,0,1,1.706,1.243,9.563,9.563,0,0,1,.738.746,8.979,8.979,0,0,1,1.126,1.591,8.691,8.691,0,0,1,.744,1.78,9.1,9.1,0,0,1,.344,1.914,10.214,10.214,0,0,1-.056,1.993,9.493,9.493,0,0,1-.331,1.547l-.27.9h2.047a2.087,2.087,0,0,1,1.7.875,2.052,2.052,0,0,1,.241.445l.119.3.446.152a8.549,8.549,0,0,1,.874.368,7.2,7.2,0,0,1,2.244,1.688,6.5,6.5,0,0,1,.893,1.3q.121.234.222.474a6.443,6.443,0,0,1,.477,1.995,7.292,7.292,0,0,1-.037,1.457c-.024.194-.057.388-.1.584a8.268,8.268,0,0,1-.826,2.157c-.061.111-.124.221-.19.332l-.171.288.116.314q.147.4.268.8c.071.236.135.477.193.719s.11.494.155.745c.01.056.018.116.025.175.045.283.079.543.106.806.01.1.019.205.027.308.026.34.04.642.042.926l0,.1c0,.038-.008.308-.008.309-.006.195-.1,1.4-.134,1.6-.013.086-.147.907-.147.907l.645.145a8.249,8.249,0,0,1,6.224,6.124l3.618,13.242a8.307,8.307,0,0,1-8.08,10.239Z" fill="#fff"/>
    <g id="Grupo_510" data-name="Grupo 510">
      <path id="Trazado_948" data-name="Trazado 948" d="M5376.064,59.971c.238,2.738,1.126,6.992-1.177,8.349a3.734,3.734,0,0,1-4.278-.4c-.685-.93-1.366-1.993-.807-3.209.4-.379.95-.752,1.307-.22.476.86.416,1.719,1.421,2.32a1.358,1.358,0,0,0,1.919-1.044c.543-2.778-1.514-6.834-.273-7.743,1.646-.664,1.725.939,1.888,1.944Z" fill="#00693a" fill-rule="evenodd"/>
      <path id="Trazado_949" data-name="Trazado 949" d="M5405.823,58.8c-.057.91-.286,1.7-.422,2.789-.3,2.342-.015,6.563-.53,7.1a1.651,1.651,0,0,1-1.365.012c-.959-1.015-.66-4.841-.453-7.077.12-1.173.317-3.044,1.333-3.523.6-.282,1.476.217,1.437.7Z" fill="#00693a" fill-rule="evenodd"/>
      <path id="Trazado_950" data-name="Trazado 950" d="M5414.01,58.73c.264.519.274,1.687-.636,1.565a8.556,8.556,0,0,0-1.78-.048l-.1.357c-.172,2.633-.145,5.622-.447,8.159-.126.474-1.116.166-1.568.119-.9-.094-.375-3.689-.322-5.341a13.621,13.621,0,0,0,.06-3.209c-.911-.187-2.074.6-2.151-.761,0-.52.443-1.3,1.029-1.242,1.842-.2,4.284-.438,5.917.4Z" fill="#00693a" fill-rule="evenodd"/>
      <path id="Trazado_951" data-name="Trazado 951" d="M5427.923,59.515a.852.852,0,0,1-.511,1.045c-1.1.4-2.287-1.408-2.988.156l0,.455c.99,1.746,3.922,2.564,3.813,4.9a3.3,3.3,0,0,1-1.212,2.546,4.9,4.9,0,0,1-4.356-.222,1.4,1.4,0,0,1-.339-1.621c1.228-.726,3.978,1.654,3.629-1.072-1.381-1.807-4.447-3.21-3.5-5.881a2.745,2.745,0,0,1,2.39-1.517c1.112.027,2.536.107,3.066,1.207Z" fill="#00693a" fill-rule="evenodd"/>
      <path id="Trazado_952" data-name="Trazado 952" d="M5393.022,60.076c-.279-2.018-5.069-2.6-5.8-1.444l-.356,9.129c-.028,1.009.455,1.211,1.3,1.165a.682.682,0,0,0,.6-.878c.1-1.1-.25-2.2.221-3.137a8.951,8.951,0,0,1,1.079-.126c1.018.793.847,2.042.841,3.148-.084.851.961.925,1.531.634.508-.679.294-3.009-.359-4.276A4.175,4.175,0,0,0,5393.022,60.076Zm-1.695,1.165a1.8,1.8,0,0,1-.8,1.483,1.509,1.509,0,0,1-1.521.116,7.388,7.388,0,0,1,.1-2.846C5390.047,59.66,5391.373,60.124,5391.327,61.241Z" fill="#00693a" fill-rule="evenodd"/>
      <path id="Trazado_953" data-name="Trazado 953" d="M5420.785,59.84a3.006,3.006,0,0,0-2.883-1.86c-1.753.146-2.842,1.911-3.349,3.409-.693,2.412-.553,6.341,1.469,7.167a2.953,2.953,0,0,0,2.5.14C5421.228,66.659,5421.265,62.629,5420.785,59.84Zm-2.953,6.831a1.437,1.437,0,0,1-1.387-.581,6.324,6.324,0,0,1,.507-5.307,1.047,1.047,0,0,1,2.018.437C5419.312,63.166,5419.012,66.371,5417.832,66.671Z" fill="#00693a" fill-rule="evenodd"/>
      <path id="Trazado_954" data-name="Trazado 954" d="M5384.043,62.052a14.571,14.571,0,0,0-1.66-3.884c-.326-.192-1.14-.388-1.462.013a25.728,25.728,0,0,0-3.257,10.036c.135.584.72.578,1.24.574.657-.128.839-.827.888-1.592.139-1.408,2.1-.78,2.93-.771.749.075.176,2.068,1.25,2.318a1.59,1.59,0,0,0,1.169-.139C5385.584,68.2,5384.711,64.126,5384.043,62.052Zm-3.291,2.564a12.882,12.882,0,0,1,.881-3.192,13.265,13.265,0,0,1,.808,3.177Z" fill="#00693a" fill-rule="evenodd"/>
      <path id="Trazado_955" data-name="Trazado 955" d="M5401.057,60.044c-.25-2.022-5.031-2.671-5.783-1.528l-.507,9.48c-.026.949.46.861,1.3.828a.683.683,0,0,0,.616-.87c.119-1.094-.089-2.24.4-3.169a4.32,4.32,0,0,0,.843-.066c1.007.806.926,2.045.9,3.151-.1.849.948.938,1.522.655.484-.244.337-3-.3-4.28A4.171,4.171,0,0,0,5401.057,60.044Zm-1.711,1.14a1.416,1.416,0,0,1-.865,1.527,2.83,2.83,0,0,1-1.593.015,19.555,19.555,0,0,1,.145-2.814C5397.971,59.59,5399.408,60.068,5399.346,61.184Z" fill="#00693a" fill-rule="evenodd"/>
    </g>
    <g id="Grupo_514" data-name="Grupo 514">
      <g id="Grupo_513" data-name="Grupo 513">
        <g id="Grupo_512" data-name="Grupo 512">
          <g id="Grupo_511" data-name="Grupo 511">
            <path id="Trazado_956" data-name="Trazado 956" d="M5428.21,45.6a1.569,1.569,0,1,1,1.573,1.551A1.546,1.546,0,0,1,5428.21,45.6Zm1.573,1.293a1.29,1.29,0,1,0-1.262-1.293A1.25,1.25,0,0,0,5429.783,46.888Zm-.328-.4h-.27V44.706h.679c.422,0,.631.155.631.508a.465.465,0,0,1-.463.491l.508.786h-.3l-.471-.774h-.311Zm.324-1c.229,0,.434-.016.434-.291,0-.221-.2-.262-.389-.262h-.369v.553Z" fill="#fff"/>
          </g>
          <path id="Trazado_957" data-name="Trazado 957" d="M5417.456,22.986a7.337,7.337,0,0,0-.277-1.551,7.069,7.069,0,0,0-.6-1.428,7.293,7.293,0,0,0-.91-1.284,7.617,7.617,0,0,0-.6-.609,8.5,8.5,0,0,0-1.416-1.03,9.84,9.84,0,0,0-1.662-.768,11.882,11.882,0,0,0-2.856-.621c.164-.5.308-.912.421-1.221a.536.536,0,0,0-.51-.721h-20.173a.539.539,0,0,0-.542.588.6.6,0,0,0,.031.133c.111.3.25.695.409,1.181.119.364.25.78.388,1.245s.284.983.434,1.548.3,1.181.459,1.845.311,1.375.464,2.135a17.62,17.62,0,0,0-6.332,6.294,17.11,17.11,0,0,0-1.864,4.546h5.634a1.586,1.586,0,0,1,1.562,1.275,5.986,5.986,0,0,1,2.86,1.748,4.955,4.955,0,0,1,1.217,2.694,10.75,10.75,0,0,1,4.893-1.126,7.108,7.108,0,0,1,4.265,1.171A12.814,12.814,0,0,1,5407,34.081a32.452,32.452,0,0,0-1.166-4.12,1.663,1.663,0,0,1,1.565-2.237h8.983a10.4,10.4,0,0,0,.746-1.794,7.9,7.9,0,0,0,.278-1.292A8.374,8.374,0,0,0,5417.456,22.986Zm-3.911,1.17a5.273,5.273,0,0,1-.512,1.626c-.088.181-.186.363-.292.544a17.6,17.6,0,0,0-5.267-4.248c.19-.923.384-1.77.574-2.544a6.473,6.473,0,0,1,4.705,1.766A3.483,3.483,0,0,1,5413.545,24.156Zm-21.161,2.131a8.654,8.654,0,0,0-4.215,4.844.9.9,0,0,1-.843.583.888.888,0,0,1-.318-.059.9.9,0,0,1-.525-1.162,10.52,10.52,0,0,1,5.068-5.805.9.9,0,1,1,.833,1.6Zm.759-5.154a.817.817,0,0,1-.169.017.853.853,0,0,1-.836-.686c-.134-.662-.882-3.427-.975-3.7a.86.86,0,0,1,.521-1.085.848.848,0,0,1,1.084.5c.1.28.9,3.231,1.044,3.952A.853.853,0,0,1,5393.143,21.133Z" fill="#00693a"/>
          <path id="Trazado_958" data-name="Trazado 958" d="M5391.394,37.159A5.112,5.112,0,0,0,5388,35.587c.085-.261.16-.474.219-.634a.278.278,0,0,0-.265-.374h-10.472a.278.278,0,0,0-.265.374,28.429,28.429,0,0,1,1.119,4.136,8.98,8.98,0,0,0-4.436,9.17,5.522,5.522,0,0,1,2.8.767,2.429,2.429,0,0,0,1.322.4,2.513,2.513,0,0,0,1.394-.558,5.714,5.714,0,0,1,3.243-1.07,5.325,5.325,0,0,1,3.192,1.111,2.6,2.6,0,0,0,1.569.628,3.27,3.27,0,0,0,1.681-.507,6.464,6.464,0,0,1,2.811-.84,9.2,9.2,0,0,0,.094-1.236,9.038,9.038,0,0,0-.941-4.01,5.51,5.51,0,0,0,1.232-2.717h0A3.8,3.8,0,0,0,5391.394,37.159Zm-12.126,5.032a4.442,4.442,0,0,0-2.213,3.825.61.61,0,0,1-.61.61h0a.611.611,0,0,1-.61-.611,5.668,5.668,0,0,1,2.82-4.879.61.61,0,0,1,.613,1.055Zm1.2-4.17a.591.591,0,0,1-.27.141.56.56,0,0,1-.121.013.613.613,0,0,1-.6-.49,7.084,7.084,0,0,0-.28-1.039.605.605,0,0,1,.318-.755c.017-.008.028-.022.045-.028a.617.617,0,0,1,.783.363c.034.094.085.243.142.439s.126.467.189.779A.6.6,0,0,1,5380.472,38.021Zm9.818,1.958h0a3.029,3.029,0,0,1-.418,1.128,9.136,9.136,0,0,0-2.734-2.2c.1-.48.2-.92.3-1.323a3.359,3.359,0,0,1,2.443.917A1.806,1.806,0,0,1,5390.29,39.979Z" fill="#00693a"/>
          <path id="Trazado_959" data-name="Trazado 959" d="M5404.565,52.946a12.663,12.663,0,0,1-2.784-11.176,12.632,12.632,0,0,1,.442-1.495,5.51,5.51,0,0,0-3.736-1.1,9.363,9.363,0,0,0-4.91,1.33,6.418,6.418,0,0,1-.805,2.25c-.068.117-.128.235-.2.351a10.332,10.332,0,0,1-.6,8.96c-.04.07-.084.137-.126.207a10.346,10.346,0,0,1-.6.9c.143.074.285.15.431.22a17.617,17.617,0,0,0,11.172,1.391q.856-.176,1.681-.432c.069-.022.136-.047.205-.07.205-.066.409-.132.61-.206.076-.028.15-.06.225-.089A12.882,12.882,0,0,1,5404.565,52.946Z" fill="#ff5100"/>
          <path id="Trazado_960" data-name="Trazado 960" d="M5435.913,67.83l-3.607-13.2a6.554,6.554,0,0,0-6.391-5.035H5421.3l-3.371,3.4h7.99A3.168,3.168,0,0,1,5429,55.43l3.606,13.194a3.168,3.168,0,0,1-.966,3.109,3.275,3.275,0,0,1-2.216.811h-59.676a3.274,3.274,0,0,1-2.216-.812,3.17,3.17,0,0,1-.965-3.108l3.607-13.194A3.168,3.168,0,0,1,5373.267,53h2.833a9.092,9.092,0,0,0,15.522-3.433c-1.766.227-2.333,1.315-4.2,1.315-2.086,0-2.558-1.739-4.761-1.739s-2.782,1.628-4.637,1.628a3.427,3.427,0,0,1-1.04-.151c-.939-.293-1.456-.919-2.792-1.016h-.922a6.554,6.554,0,0,0-6.392,5.035l-3.607,13.2a6.553,6.553,0,0,0,1.684,6.128,6.8,6.8,0,0,0,4.9,1.983h59.475a6.794,6.794,0,0,0,4.9-1.984A6.549,6.549,0,0,0,5435.913,67.83Z" fill="#ff5100"/>
          <path id="Trazado_961" data-name="Trazado 961" d="M5425.661,44.915c0-.084,0-.168.007-.252,0-.019,0-.036,0-.055s0-.028,0-.043c0-.283-.015-.563-.037-.841q-.01-.135-.024-.27-.036-.355-.093-.7c-.008-.049-.011-.1-.02-.15-.039-.217-.083-.432-.134-.645s-.106-.419-.168-.624a11.442,11.442,0,0,0-.7-1.782l-.012-.026a9.112,9.112,0,0,0,.829-1.253,6.517,6.517,0,0,0,.654-1.7h0c.031-.143.056-.286.073-.426h0a5.467,5.467,0,0,0,.031-1.079v-.006a4.709,4.709,0,0,0-.349-1.483c-.049-.117-.1-.232-.161-.344a4.746,4.746,0,0,0-.654-.95A5.483,5.483,0,0,0,5423.194,31a6.74,6.74,0,0,0-.7-.293,7.707,7.707,0,0,0-1.865-.4l0-.008c.106-.324.2-.59.273-.79a.347.347,0,0,0,.018-.171v0a.352.352,0,0,0-.061-.148.363.363,0,0,0-.122-.107.358.358,0,0,0-.168-.041H5407.4a.358.358,0,0,0-.168.041.353.353,0,0,0-.184.259.344.344,0,0,0,.018.166v0c.073.2.164.454.267.771.016.049.034.1.05.156.028.087.056.173.085.268.016.051.032.106.049.159.04.134.081.272.124.42l.033.112c.171.6.356,1.306.541,2.119.013.056.026.111.038.168.061.27.121.548.181.839.013.063.026.119.039.182-.031.018-.059.038-.09.056-.181.108-.362.218-.537.336-.039.026-.075.058-.114.085-.244.169-.483.346-.714.533a11.527,11.527,0,0,0-2.285,2.477,11.346,11.346,0,0,0-.993,1.8c-.023.05-.049.1-.07.15a11.483,11.483,0,0,0-.5,1.417c-.006.023-.01.047-.017.07a11.449,11.449,0,0,0-.4,2.984c0,.122,0,.242.009.363.211.028.411.063.6.106a6.166,6.166,0,0,1,.74.218c.214.078.413.161.6.249.268.127.512.258.738.382a3.734,3.734,0,0,0,2.049.629,3.86,3.86,0,0,0,2.18-.865,7.186,7.186,0,0,1,4.188-1.432c.08,0,.152.01.231.012a6.067,6.067,0,0,1,1.355.2,6.233,6.233,0,0,1,1.221.471,11.972,11.972,0,0,1,1.3.8,3.981,3.981,0,0,0,2.432.972,4.9,4.9,0,0,0,2.535-.771,12.589,12.589,0,0,1,1.387-.65,7.388,7.388,0,0,1,1.333-.374m-2.668-7.669c-.178-.213-.365-.419-.558-.618a11.53,11.53,0,0,0-1.921-1.589c-.31-.2-.631-.394-.961-.567v0c.112-.543.226-1.041.338-1.506.012-.049.024-.1.036-.151a5.977,5.977,0,0,1,.944.091,4.834,4.834,0,0,1,.849.23,3.171,3.171,0,0,1,1.279.832,2.078,2.078,0,0,1,.262.373c.012.021.022.043.034.065a2.161,2.161,0,0,1,.138.342c.009.032.02.062.029.094a2.431,2.431,0,0,1,.074.449,3.052,3.052,0,0,1-.019.542,3.134,3.134,0,0,1-.18.7,4.376,4.376,0,0,1-.243.521C5423.057,37.119,5423.025,37.183,5422.988,37.247Zm-13.137.956a6.167,6.167,0,0,0-3.339,5.3.731.731,0,0,1-.731.731h0a.731.731,0,0,1-.731-.732,7.686,7.686,0,0,1,4.067-6.569.732.732,0,0,1,.735,1.266Zm.789-4.486a.718.718,0,0,1-.145.015.733.733,0,0,1-.717-.588c-.145-.724-.4-1.714-.459-1.874a.731.731,0,0,1,.4-.922c.012,0,.022-.012.035-.017a.735.735,0,0,1,.939.434c.1.28.379,1.394.52,2.09A.732.732,0,0,1,5410.64,33.717Z" fill="#00693a"/>
          <path id="Trazado_962" data-name="Trazado 962" d="M5424.109,46.814a7.357,7.357,0,0,1-3.707,1.209c-1.984,0-2.906-1.175-4.288-1.9a4.681,4.681,0,0,0-1.236-.452,4.882,4.882,0,0,0-1.014-.1c-.154,0-.3.01-.441.021-2.665.211-3.509,2.276-5.926,2.276a4.864,4.864,0,0,1-2.585-.739c-.192-.1-.384-.21-.585-.311a5.707,5.707,0,0,0-.844-.353,4.821,4.821,0,0,0-.591-.147h0l.006.033q.042.276.1.547c0,.016.008.032.011.048.036.175.075.349.119.521h0a11.449,11.449,0,0,0,2.743,4.971,11.127,11.127,0,0,0,2.22,1.837q.455.29.937.535a11.452,11.452,0,0,0,16.522-8.532A6.786,6.786,0,0,0,5424.109,46.814Z" fill="#ff5100"/>
        </g>
      </g>
    </g>
  </g>
</svg>
